<svg viewBox="0 0 18 18" fill="none" xmlns="http://www.w3.org/2000/svg">
<g>
<mask id="path-1-inside-1_1_41" fill="white">
<path fill-rule="evenodd" clip-rule="evenodd" d="M9 0C6.24 0 4 2.24 4 5C4 7.76 6.24 10 9 10C11.76 10 14 7.76 14 5C14 2.24 11.76 0 9 0ZM9 9C6.795 9 5 7.205 5 5C5 2.795 6.795 1 9 1C11.205 1 13 2.795 13 5C13 7.205 11.205 9 9 9ZM9.5 2.5V3.5H8.5V2.5H9.5ZM9.5 4.5V7.5H8.5V4.5H9.5Z"/>
</mask>
<path fill-rule="evenodd" clip-rule="evenodd" d="M9 0C6.24 0 4 2.24 4 5C4 7.76 6.24 10 9 10C11.76 10 14 7.76 14 5C14 2.24 11.76 0 9 0ZM9 9C6.795 9 5 7.205 5 5C5 2.795 6.795 1 9 1C11.205 1 13 2.795 13 5C13 7.205 11.205 9 9 9ZM9.5 2.5V3.5H8.5V2.5H9.5ZM9.5 4.5V7.5H8.5V4.5H9.5Z" fill="#3B755F"/>
<path d="M9.5 3.5V4.5H10.5V3.5H9.5ZM9.5 2.5H10.5V1.5H9.5V2.5ZM8.5 3.5H7.5V4.5H8.5V3.5ZM8.5 2.5V1.5H7.5V2.5H8.5ZM9.5 7.5V8.5H10.5V7.5H9.5ZM9.5 4.5H10.5V3.5H9.5V4.5ZM8.5 7.5H7.5V8.5H8.5V7.5ZM8.5 4.5V3.5H7.5V4.5H8.5ZM5 5C5 2.79228 6.79228 1 9 1V-1C5.68772 -1 3 1.68772 3 5H5ZM9 9C6.79228 9 5 7.20772 5 5H3C3 8.31229 5.68772 11 9 11V9ZM13 5C13 7.20772 11.2077 9 9 9V11C12.3123 11 15 8.31228 15 5H13ZM9 1C11.2077 1 13 2.79228 13 5H15C15 1.68772 12.3123 -1 9 -1V1ZM4 5C4 7.75728 6.24272 10 9 10V8C7.34728 8 6 6.65272 6 5H4ZM9 0C6.24272 0 4 2.24272 4 5H6C6 3.34728 7.34728 2 9 2V0ZM14 5C14 2.24272 11.7573 0 9 0V2C10.6527 2 12 3.34728 12 5H14ZM9 10C11.7573 10 14 7.75728 14 5H12C12 6.65272 10.6527 8 9 8V10ZM10.5 3.5V2.5H8.5V3.5H10.5ZM8.5 4.5H9.5V2.5H8.5V4.5ZM7.5 2.5V3.5H9.5V2.5H7.5ZM9.5 1.5H8.5V3.5H9.5V1.5ZM10.5 7.5V4.5H8.5V7.5H10.5ZM8.5 8.5H9.5V6.5H8.5V8.5ZM7.5 4.5V7.5H9.5V4.5H7.5ZM9.5 3.5H8.5V5.5H9.5V3.5Z" fill="black" mask="url(#path-1-inside-1_1_41)"/>
</g>
<defs>
<filter id="filter0_d_1_41" x="0" y="0" width="18" height="18" filterUnits="userSpaceOnUse" color-interpolation-filters="sRGB">
<feFlood flood-opacity="0" result="BackgroundImageFix"/>
<feColorMatrix in="SourceAlpha" type="matrix" values="0 0 0 0 0 0 0 0 0 0 0 0 0 0 0 0 0 0 127 0" result="hardAlpha"/>
<feOffset dy="4"/>
<feGaussianBlur stdDeviation="2"/>
<feComposite in2="hardAlpha" operator="out"/>
<feColorMatrix type="matrix" values="0 0 0 0 0 0 0 0 0 0 0 0 0 0 0 0 0 0 0.25 0"/>
<feBlend mode="normal" in2="BackgroundImageFix" result="effect1_dropShadow_1_41"/>
<feBlend mode="normal" in="SourceGraphic" in2="effect1_dropShadow_1_41" result="shape"/>
</filter>
</defs>
</svg>
